<?xml version="1.0" encoding="utf-8"?>
<!-- Generator: Adobe Illustrator 27.0.1, SVG Export Plug-In . SVG Version: 6.00 Build 0)  -->
<svg version="1.1" id="flag-icons-am" xmlns="http://www.w3.org/2000/svg" xmlns:xlink="http://www.w3.org/1999/xlink" x="0px"
	 y="0px" viewBox="0 0 640 480" style="enable-background:new 0 0 640 480;" xml:space="preserve">
<style type="text/css">
	.st0{fill-rule:evenodd;clip-rule:evenodd;fill:#FFFFFF;}
	.st1{fill-rule:evenodd;clip-rule:evenodd;fill:#DC171D;}
	.st2{fill-rule:evenodd;clip-rule:evenodd;fill:#012A87;}
</style>
<path class="st0" d="M0,0h640v480H0V0z"/>
<path class="st1" d="M248.9,0h142.2v480H248.9V0z"/>
<path class="st2" d="M0,160h640v160H0V160z"/>
<path id="a" class="st0" d="M295.4,313.3l-11-10l-11,9.6l4.4-14.8l-11-10h13.3l4.7-14.8l4.2,14.8h13.4l-10.6,10L295.4,313.3z"/>
<g transform="translate(83.33)">
	<path id="a_00000063625177835136149980000005983972378678883763_" class="st0" d="M366.5,313.3l-11-10l-11,9.6l4.4-14.8l-11-10H351
		l4.7-14.8l4.2,14.8h13.4l-10.6,10L366.5,313.3z"/>
</g>
<g transform="translate(0 -111.1188)">
	<path id="a_00000070800840610659875970000000972122668392766398_" class="st0" d="M295.4,206.7l-11-10l-11,9.6l4.4-14.8l-11-10
		h13.3l4.7-14.8l4.2,14.8h13.4l-10.6,10L295.4,206.7z"/>
</g>
<g transform="translate(80 -111.1188)">
	<path id="a_00000022522116436580824540000016497423580365506474_" class="st0" d="M363.7,206.7l-11-10l-11,9.6l4.4-14.8l-11-10
		h13.3l4.7-14.8l4.2,14.8h13.4l-10.6,10L363.7,206.7z"/>
</g>
<g transform="translate(-69.5 -55.55583)">
	<path id="a_00000104663988396238994680000012645412804918387618_" class="st0" d="M236.1,260l-11-10l-11,9.6l4.4-14.8l-11-10h13.3
		l4.7-14.8l4.2,14.8h13.4l-10.6,10L236.1,260z"/>
</g>
<g transform="translate(152.78 -55.55383)">
	<path id="a_00000163767827255553596690000009168145116408572592_" class="st0" d="M425.8,260l-11-10l-11,9.6l4.4-14.8l-11-10h13.3
		L415,220l4.2,14.8h13.4l-10.6,10L425.8,260z"/>
</g>
</svg>
