<?xml version="1.0" encoding="utf-8"?>
<!-- Generator: Adobe Illustrator 27.0.1, SVG Export Plug-In . SVG Version: 6.00 Build 0)  -->
<svg version="1.1" id="flag-icons-vu" xmlns="http://www.w3.org/2000/svg" xmlns:xlink="http://www.w3.org/1999/xlink" x="0px"
	 y="0px" viewBox="0 0 640 480" style="enable-background:new 0 0 640 480;" xml:space="preserve">
<style type="text/css">
	.st0{fill:#FFFFFF;}
	.st1{fill:#369443;stroke:#010002;stroke-width:3;stroke-miterlimit:10;}
	.st2{fill:#F4C53D;stroke:#010002;stroke-width:3;stroke-miterlimit:10;}
	.st3{fill:none;stroke:#010002;stroke-width:3;stroke-miterlimit:10;}
	.st4{fill:#F4C53D;stroke:#010002;stroke-width:3;}
	.st5{fill:#F6E200;stroke:#010002;stroke-width:3;}
	.st6{fill:none;stroke:#010002;stroke-width:3;}
	.st7{fill:#0081C6;stroke:#010002;stroke-width:3;stroke-miterlimit:10;}
	.st8{fill:#FFFFFF;stroke:#010002;stroke-width:3;}
	.st9{fill:#A60032;stroke:#010002;stroke-width:3;}
	.st10{fill:none;}
	.st11{fill:#162667;stroke:#010002;stroke-width:3;stroke-miterlimit:10;}
</style>
<g>
	<rect id="rect3" class="st0" width="640" height="480"/>
	<path id="path5" class="st1" d="M199.7,325c0,0-0.5-3.9,6.1-6.8c6.7-2.9,7.2-13.7,5.8-20.9c0,0-3.5,6.8-7.7,9.1c0,0-6.9,4-7.2,11.7
		c0,0-0.1,2.8-0.6,5c-0.3,1.2-3.3-9.6,2.4-17.7c6-8.3,7.6-15.1,2.9-28.2c0,0-0.4,8-5.1,12.5c-4.7,4.6-5.3,4.9-5.2,15.8
		c0,0,0.1,3.8-1.7,5c0,0-3.6-6-4.6-9.9c-1-3.9-1.4-5.6,2.7-10.2c0,0,13.3-9.7,3.7-30.8c0,0-0.3,7.3-4.9,11.6
		c-4.6,4.3-4.2,7.2-4.4,14.6c-0.2,7.5-0.7,6.9-1.2,8c0,0-8.4-17.5-1.9-26.8c6.5-9.3,10.1-11.2,3-28.5c0,0,0.3,8.9-5.4,13.2
		c-5.7,4.4-4.4,14.6-4.4,14.6s0.4,3.9-0.8,6.7c0,0-8.1-17.8-0.4-27.5c6.6-8.2,7-13.9,3.5-25.4c0,0-0.4,5.4-4.1,8.2
		c-3.6,2.9-6.5,5.8-5.8,16.9c0,0,0.3,7.8-0.6,10c0,0-3.4-7.1-4.4-11.8c-1-4.6-1.3-7.4,1.2-12c2.5-4.6,12.5-18,0.6-37.2
		c0,0-0.4,6.2-3.4,11.8c-3,5.6-1.6,12.3-1,17.4c0.7,5.1-1.6,10-1.6,10s-5.2-10.7-4.1-23c1.1-12.3-3.3-22.4-13.4-29.6
		c0,0-7.3,19.1,2.7,28.9c0,0,8.5,9.5,10.7,21c0,0-6.4-0.7-12.3-13.5c-5.8-12.8-18-10.8-18.8-10.9c0,0,2,19.8,20.7,25.4
		c0,0,11.9,2.3,14.1,12.1c0,0,2,6.8,2.8,10.4c0,0-3.8-1.7-7.3-7.5c-3.5-5.8-3-6.5-14.8-7.8c0,0-4.7-0.6-7.3-4.4c0,0,5,21,17.7,20.8
		c0,0,11.6-1.4,18.1,15.8c0,0-1.3-0.9-3-2.2c-1.7-1.3-6-3.8-14.5-2.6c-8.5,1.1-10.9-0.4-13-1.2c0,0,8.6,17.7,20.7,12.5
		c12.1-5.3,18,13.9,18.1,14.3c0,0-1.6-1.4-3.8-3.8c-2.1-2.4-6.6-5.3-15-2.3c0,0-6.1,2.6-12.2,0.5c0,0,5.9,12.9,19.8,10.7
		c13.8-2.2,17.3,11.5,17.3,11.5s-1.9-1.2-3.1-2.4c-1.3-1.1-5.9-4.1-15.9-0.8c-10,3.3-13.6-0.5-13.6-0.5s5.6,11.4,16.2,12.7
		c0,0,5.9-0.1,8.4-1.1c2.5-1.1,9.2-2.7,13.8,4.7c0,0-1.3,0.3-3.2-0.7c0,0-7.1-2.9-12.5,2.2c0,0-4.8,5.5-11.6,4.5
		c0,0,8.8,9.6,22.8,1.5c0,0,4.7-3.9,8.2-0.9C191.6,330.9,199.7,325,199.7,325z"/>
	<path id="path7" class="st2" d="M277.5,87.3c0,0-1.6-16.3,10-17.9c12.1-1.6,18.1,1.2,18.1,1.2l5.4,12l-1.9,8.1l-7.5,3.9
		c0,0,1.3-12.4-8.8-12.7c-2.6-0.1-4.1,1.1-8.1,0.4C280.6,81.5,278.4,86.5,277.5,87.3z"/>
	<path id="path9" class="st2" d="M359.1,127.7c-1.7,2.5-8.6,3.4-8.6,3.4s7.1,6.1,10.2,14.9c3.1,8.8-82.4,0.1-82.4,0.1s3.7-3,6.2-8.6
		c0,0-3.8,1.6-7.6-2.6c0,0,2.8,1.1,6.5-5.3c0,0,5.5-7.9,9.3-10c0,0-1.8,1.2-6.1-1.4c0,0,7.4-1.1,10.1-15.3c0,0,0.4-3.2,3.3-7.7
		c2.8-4.6,2.2,0.9,7.4-6.1c0,0,2.4-5,0.3-8c-2.1-3-4.3-1.9-8.6-4.9s-6.3-4.6-4.8-9.1c1.5-4.5,5.3-3.8,5.9-3.8c0.5,0,0.8-3.9,5.6-6.6
		c4.7-2.7,17.3-1.5,19.2-0.4c1.9,1.2,9.5,3.7,13.9,16.3c4.4,12.6-1.2,17.4,10.9,36.4c0,0-4.8,1.2-7.9,0.1
		C341.9,109.2,348.1,121.7,359.1,127.7z"/>
	<path id="path11" class="st3" d="M306.3,74.4c-9.8-0.5-6.1-11.1-6.1-11.1"/>
	<path id="path13" class="st2" d="M323.4,75.8c0,0-1.7-0.9-3.2-3.1c-2.1-3.1-6.7-4.6-9.2-1.7c0,0-2.5,3.2-4.7,3.3
		c0,0,2.5,0.9,4.3,2.7c1.7,1.8,3.6,3.1,6.1,2.7c2.6-0.4,3-1.9,4.2-2.9C322.1,76,323.4,75.8,323.4,75.8z"/>
	<path id="path15" class="st4" d="M387.4,233.6c0,0,9.2,8.4,16.9,0c0,0,3.1,4.2,9.3,3c6.2-1.2,7.3-4.9,7.8-7c0,0,5.4,3.5,9.9,0.7
		c4.5-2.8,4.5-7,4.5-7s7.9,1.8,11.9-4.3s1.6-12-0.6-12.7c0,0,8.5,2.5,10.9-5.7c2-7-2.5-10.6-2.5-10.6s18-0.1,25.4-6.4
		c0,0,6.1-4.3,2.5-8.9c0,0,16.2-2.9,20.2-10.2c0,0,1.8-2,1.2-5.5c0,0-0.1-2-1.9-2.1c0,0,18.5-3.2,23.8-10.1c0,0,2.6-3.2,1.3-7.4
		c0,0-0.3-1.1-0.7-1.9c0,0,16.8-4,25.1-12.4c0,0,4.8-4.8,2.3-11.2c0,0,28.1-8.7,21.6-22.6c0,0,13.1-4.8,9-18.1c0,0,10.9-6.2,6.1-16
		c-4.5-9.4-18.5,1.6-34.9,6.8c0,0-44.6,15.8-66.6,20l-62.4,104.6l-36.4,15.8L387.4,233.6z"/>
	<path id="path17" class="st4" d="M387,156.6c0,0,5.9-4.9,16.3,0.9c0,0,3.5,2.7,6.3-0.3c2.3-2.5,2.5-7.1-0.7-9.7
		c-7.8-6.5-10.7-26,1.2-34c0,0,17.2-11.5,80.2-29.5c0,0,5.3-1.6,8.1-0.9c3.1,0.9,5.2,3.9,5.7,6.4c0,0,2.8,9-6.7,14.2
		c0,0-4.3,2.2-8.7,3.6c0,0,4.8-1.2,6.9,4.2c2,5.1-0.9,10.4-9.8,13.8c0,0-2.4,1.1-5.8,2c0,0,7.6,2.5,3.9,9.4c0,0-3.3,7.3-14.8,8.5
		c0,0,8.6,1.1,2.5,10.2c0,0-2.7,5-11.1,6.9c0,0,6.4,0.2,3.2,6.7c-3.2,6.4-10.8,10.1-18.2,10.6c0,0-4,0.2-6.8-0.5c0,0,7.1,4,2.9,10.6
		c0,0-3.1,4.7-10.7,4.5c0,0,2,7.4-3.6,10.3c-4.4,2.2-8-1.3-8-1.3s1.5,8-4.9,10.8c0,0-3.2,1.8-7.9,0c0,0-3.6,9.1-16.5,2.7
		C377.1,210.3,387,156.6,387,156.6z"/>
	<path id="path19" class="st5" d="M354,183.5"/>
	<path id="path21" class="st6" d="M585.4,73.2c0,0-20.2,13.2-83.3,26.4"/>
	<path id="path23" class="st4" d="M224,306.3c0,0-7.5,14.5-16.6,14.7c0,0-15.6-2.1-20,2.5c-3.1,3.2-6.2,5.8-7.5,14
		c-1.3,8.2,2.5,9.9,3.4,10.3c0,0,0.7,5.8,5.8,4.3c0,0,0.3,6.1,9.4,3.2c9.1-2.9,12.8-2,14.6-12.2c1.8-10.2,3.4-10,5-11.2
		c2.2-1.6,6.3-3.2,9.3-5.1c2.7-1.8,13.1-7.7,16.7-8.2c3.6-0.5,2.8-13.9,2.8-13.9h-9.2l-4.4-7.4L224,306.3z"/>
	<path id="path25" class="st6" d="M576.4,91.4c0,0-54.8,20.1-80.3,22.6"/>
	<path id="path27" class="st6" d="M554.8,113.9c0,0-32.1,11.3-69.8,18.5"/>
	<path id="path29" class="st6" d="M527.4,137.6c0,0-36.3,9.8-53.6,11.4"/>
	<path id="path31" class="st3" d="M503.1,156.9c0,0-30.7,7.2-38.5,8.1"/>
	<polygon id="polygon33" class="st7" points="468.5,209.4 470,264.2 470,264.2 461.4,258.6 461.4,258.6 447.1,328.2 441.2,323.4 
		455.1,256.7 455.1,256.7 445.4,256.9 445.4,256.9 	"/>
	<path id="path35" class="st3" d="M483.5,174.6c0,0-22.4,3.8-31.3,3.6"/>
	<path id="path37" class="st3" d="M455.7,190c0,0-9.1-0.5-13.4-1.3"/>
	<path id="path39" class="st3" d="M447.3,206.3c0,0-7.7-2.3-12.2-5.6"/>
	<path id="path41" class="st3" d="M435.9,223.3c0,0-5.9-2.6-8.8-9.6"/>
	<path id="path43" class="st3" d="M421.5,229.5c0,0-4.6-4.6-4.9-9.8"/>
	<polygon id="polygon45" class="st7" points="524.1,233.8 503.8,283 503.8,283 498.4,273.3 498.4,273.3 455.4,330.4 450.8,324.6 
		493.6,268.1 493.6,268.1 484.9,262.9 484.9,262.9 	"/>
	<path id="path47" class="st3" d="M404.3,233.6c0,0,1.7-1.7,0.5-8.9"/>
	<polygon id="polygon49" class="st7" points="505.6,197.6 495.1,251 495.1,251 488,243 488,243 449.5,326.2 443.6,322.3 
		482.3,239.3 482.3,239.3 472.9,236.5 472.9,236.5 	"/>
	<path id="path51" class="st3" d="M406.5,214c0,0,0.9-2.1,0.6-5.4"/>
	<path id="path53" class="st4" d="M252.9,233.6c0,0-9.2,8.4-16.9,0c0,0-3.1,4.2-9.3,3c-6.2-1.2-7.3-4.9-7.8-7c0,0-5.4,3.5-9.9,0.7
		c-4.5-2.8-4.5-7-4.5-7s-7.9,1.8-11.9-4.3s-1.6-12,0.6-12.7c0,0-8.5,2.5-10.9-5.7c-2-7,2.5-10.6,2.5-10.6s-18-0.1-25.4-6.4
		c0,0-6.1-4.3-2.5-8.9c0,0-16.2-2.9-20.2-10.2c0,0-1.8-2-1.2-5.5c0,0,0.1-2,1.9-2.1c0,0-18.5-3.2-23.8-10.1c0,0-2.6-3.2-1.3-7.4
		c0,0,0.3-1.1,0.7-1.9c0,0-16.8-4-25.1-12.4c0,0-4.8-4.8-2.3-11.2c0,0-28.1-8.7-21.6-22.6c0,0-13.1-4.8-9-18.1c0,0-10.9-6.2-6.1-16
		c4.5-9.4,18.5,1.6,34.9,6.8c0,0,44.6,15.8,66.6,20l62.4,104.6l36.4,15.8L252.9,233.6z"/>
	<path id="path55" class="st3" d="M438.9,110.2c0,0-10.4,4.7-13.8,11.1c-3.5,6.4-1.2,12.7,0,16.3c0.6,1.8,7.9,17.6-0.7,29.1"/>
	<path id="path57" class="st4" d="M253.3,156.6c0,0-5.9-4.9-16.3,0.9c0,0-3.5,2.7-6.3-0.3c-2.3-2.5-2.5-7.1,0.7-9.7
		c7.8-6.5,10.7-26-1.2-34c0,0-17.2-11.5-80.2-29.5c0,0-5.3-1.6-8.1-0.9c-3.1,0.9-5.2,3.9-5.7,6.4c0,0-2.8,9,6.7,14.2
		c0,0,4.3,2.2,8.7,3.6c0,0-4.8-1.2-6.9,4.2c-2,5.1,0.9,10.4,9.8,13.8c0,0,2.4,1.1,5.8,2c0,0-7.6,2.5-3.9,9.4c0,0,3.3,7.3,14.8,8.5
		c0,0-8.6,1.1-2.5,10.2c0,0,2.7,5,11.1,6.9c0,0-6.4,0.2-3.2,6.7c3.2,6.4,10.8,10.1,18.2,10.6c0,0,4,0.2,6.8-0.5c0,0-7.1,4-2.9,10.6
		c0,0,3.1,4.7,10.7,4.5c0,0-2,7.4,3.6,10.3c4.4,2.2,8-1.3,8-1.3s-1.5,8,4.9,10.8c0,0,3.2,1.8,7.9,0c0,0,3.6,9.1,16.5,2.7
		C263.2,210.3,253.3,156.6,253.3,156.6z"/>
	<path id="path59" class="st3" d="M438.7,179.1c0,0,0-0.1-3.7-1.3"/>
	<path id="path61" class="st3" d="M460.6,162.3c0,0-6.2,1.4-12.2,1.5"/>
	<path id="path63" class="st3" d="M469.1,145.2c0,0-7.3,0.8-14.1,0.7"/>
	<path id="path65" class="st3" d="M480,127.3c0,0-10.5,2.3-16.1,2.5"/>
	<path id="path67" class="st3" d="M488.6,107.3c0,0-12.9,4.1-22.5,5.6"/>
	<path id="path69" class="st3" d="M444.8,121.4c0,0,9.3,9.7-1.9,18.7c0,0,4.6,8.2-4.6,16.7"/>
	<path id="path71" class="st4" d="M254.1,239.5c0,0-1.9,11.4-16.9,25.8c0,0-11.6,11.5-11.3,24.7c0.3,13.5-2.1,15-6.6,19.5
		c0,0,9.4,0.8,13.9-6.2c0,0-0.2,11.7-1.6,12.7c0,0,2.9,0.2,7.2-5c0,0,2.6-3,4.9-4.2c0,0-2.8,8.1-0.6,15.6c0,0,0.7-2.9,4.3-4.2
		c0,0,6.6-1.5,9.2-12.3c0,0,1.7-7.1,12-13.5c0,0,11.7-5,11.5-11.5S254.1,239.5,254.1,239.5z"/>
	<path id="path73" class="st3" d="M440.8,160.9c0,0,1.4,15.6-15.6,15.6c0,0,3.3,13.9-13.1,13.5c0,0-1.9,11.1-13.7,8.9"/>
	<path id="path75" class="st4" d="M416.3,306.3c0,0,7.5,14.5,16.6,14.7c0,0,15.6-2.1,20,2.5c3.1,3.2,6.2,5.8,7.5,14
		c1.3,8.2-2.5,9.9-3.4,10.3c0,0-0.7,5.8-5.8,4.3c0,0-0.3,6.1-9.4,3.2c-9.1-2.9-12.8-2-14.6-12.2c-1.8-10.2-3.4-10-5-11.2
		c-2.2-1.6-6.3-3.2-9.3-5.1c-2.7-1.8-13.1-7.7-16.7-8.2c-3.6-0.5-2.8-13.9-2.8-13.9h9.2l4.4-7.4L416.3,306.3z"/>
	<path id="path77" class="st4" d="M386.2,239.5c0,0,1.9,11.4,16.9,25.8c0,0,11.6,11.5,11.3,24.7c-0.3,13.5,2.1,15,6.6,19.5
		c0,0-9.4,0.8-13.9-6.2c0,0,0.2,11.7,1.6,12.7c0,0-2.9,0.2-7.2-5c0,0-2.6-3-4.9-4.2c0,0,2.8,8.1,0.6,15.6c0,0-0.7-2.9-4.3-4.2
		c0,0-6.6-1.5-9.2-12.3c0,0-1.7-7.1-12-13.5c0,0-11.7-5-11.5-11.5C360.4,274.4,386.2,239.5,386.2,239.5z"/>
	<path id="path79" class="st6" d="M424.4,321.1c0,0,2.7,0.7,8.5,0"/>
	<path id="path81" class="st3" d="M449.3,329.3c0,0,8.2-1.4,7.8,18.6"/>
	<path id="path83" class="st3" d="M444.4,333.8c0,0,7.4-1.1,6.9,18.4"/>
	<path id="path85" class="st6" d="M372.9,287c0,0,3.6,0.8,6,4c2.5,3.2,7.2,2.6,7.2,2.6s-2.6-2.3-3.5-8.2c-0.9-5.8-3.8-7.6-3.8-7.6"
		/>
	<path id="path87" class="st6" d="M387.4,272.3c0,0,3.6,0.8,6,4c2.5,3.2,7.2,2.6,7.2,2.6s-2.6-2.3-3.5-8.2s-3.8-7.6-3.8-7.6"/>
	<path id="path89" class="st6" d="M389.8,295c0,0,3.1,0.7,5.3,3.5c2.2,2.8,6.3,2.2,6.3,2.2s-2.2-2-3-7.1c-0.8-5.1-3.3-6.6-3.3-6.6"
		/>
	<path id="path91" class="st2" d="M331.8,386.7c0,0,2.7,13.4,12,12.3c0,0,6.6-0.7,6.1-13.1c0,0,9.8,5.8,11.4-8.7
		c0,0,8.9,2.3,8.8-11.2c0,0,8.3,1.6,7.3-10.4c0,0,9,2.7,9-8.7c0,0,21-3.9-22.8-48.9l-39.1,26.2L331.8,386.7z"/>
	<path id="path93" class="st4" d="M327.4,326.7c0,0,6.5,6.5,11.2-3.2c0,0,6.3-0.4,7.3-5.7c0,0,5.1-0.6,6.1-6.1c0,0,7-0.8,6.8-7.5
		c0,0,12.7-1.1,0-17.3c-12.7-16.2-34.4,26.9-34.4,26.9L327.4,326.7z"/>
	<path id="path95" class="st3" d="M349.9,385.9c0,0-1-23.5-19.1-57.2"/>
	<path id="path97" class="st3" d="M361.3,377.2c0,0,2.8-13.6-22.7-53.7c0,0,3-9.6-6.1-15.7"/>
	<path id="path99" class="st3" d="M370.1,366c0,0,0.8-14.7-24.2-48.2c0,0,2.2-8.7-6.8-15.6"/>
	<path id="path101" class="st3" d="M377.4,355.6c0,0-0.9-14.9-25.4-43.9c0,0,1.2-8.9-7.5-14.4"/>
	<path id="path103" class="st3" d="M386.4,346.9c0,0-1.8-17-27.5-42.7c0,0,0.9-6.7-7.7-13.5"/>
	<path id="path105" class="st2" d="M308.5,386.7c0,0-2.7,13.4-12,12.3c0,0-6.6-0.7-6.1-13.1c0,0-9.8,5.8-11.4-8.7
		c0,0-8.9,2.3-8.8-11.2c0,0-8.3,1.6-7.3-10.4c0,0-9,2.7-9-8.7c0,0-21-3.9,22.8-48.9l39.1,26.2L308.5,386.7z"/>
	<path id="path107" class="st4" d="M312.9,326.7c0,0-6.5,6.5-11.2-3.2c0,0-6.3-0.4-7.3-5.7c0,0-5.1-0.6-6.1-6.1c0,0-7-0.8-6.8-7.5
		c0,0-12.7-1.1,0-17.3c12.7-16.2,34.4,26.9,34.4,26.9L312.9,326.7z"/>
	<path id="path109" class="st3" d="M290.4,385.9c0,0,1-23.5,19.1-57.2"/>
	<path id="path111" class="st3" d="M279,377.2c0,0-2.8-13.6,22.7-53.7c0,0-3-9.6,6.1-15.7"/>
	<path id="path113" class="st4" d="M320.2,322.7c6.3,0,13.5,44.4,11.6,71.1c-0.7,9.7-5.3,17.6-11.6,17.6s-10.9-7.9-11.6-17.6
		C306.7,367.1,313.8,322.7,320.2,322.7"/>
	<path id="path115" class="st3" d="M270.2,366c0,0-0.8-14.7,24.2-48.2c0,0-2.2-8.7,6.8-15.6"/>
	<path id="path117" class="st3" d="M262.9,355.6c0,0,0.9-14.9,25.4-43.9c0,0-1.2-8.9,7.5-14.4"/>
	<ellipse id="ellipse119" class="st4" cx="320.2" cy="322.4" rx="8.7" ry="14.6"/>
	<path id="path121" class="st3" d="M254,346.9c0,0,1.8-17,27.5-42.7c0,0-0.9-6.7,7.7-13.5"/>
	<path id="path123" class="st8" d="M320.2,319.2c0,0,74.1-37,74.3-122.4H245.9C246,282.2,320.2,319.2,320.2,319.2z"/>
	<line id="line125" class="st3" x1="280.1" y1="196.7" x2="291.6" y2="196.7"/>
	<line id="line127" class="st3" x1="257.3" y1="196.7" x2="268.7" y2="196.7"/>
	<line id="line129" class="st3" x1="303" y1="196.7" x2="314.4" y2="196.7"/>
	<path id="path131" class="st9" d="M257.3,196.7v54.6c0,0,5.7,12.7,11.4,20.6v-75.2H257.3L257.3,196.7z"/>
	<path id="path133" class="st9" d="M280.1,196.7v90c0,0,7.1,7.9,11.4,11.7V196.7H280.1z"/>
	<path id="path135" class="st9" d="M303,196.7V308c0,0,8.2,5.9,11.4,7.9V196.7L303,196.7L303,196.7z"/>
	<line id="line137" class="st6" x1="257.3" y1="196.7" x2="268.7" y2="196.7"/>
	<line id="line139" class="st6" x1="280.1" y1="196.7" x2="291.6" y2="196.7"/>
	<line id="line141" class="st6" x1="303" y1="196.7" x2="314.4" y2="196.7"/>
	<path id="path143" class="st9" d="M383,196.7v54.6c0,0-5.7,12.7-11.4,20.6v-75.2H383z"/>
	<path id="path145" class="st9" d="M360.2,196.7v90c0,0-7.1,7.9-11.4,11.7V196.7H360.2z"/>
	<path id="path147" class="st9" d="M337.3,196.7V308c0,0-8.2,5.9-11.4,7.9V196.7L337.3,196.7L337.3,196.7z"/>
	<line id="line149" class="st10" x1="398.5" y1="401.8" x2="391.6" y2="411.3"/>
	<line id="line151" class="st10" x1="383" y1="400.8" x2="402" y2="420.5"/>
	<path id="path153" class="st7" d="M440,351.6l-2.9,13.3l0,0l7.9,8.8l0,0l-11.2,53l-9.9-15l-14.7,7.7l11.2-53l0,0l10.3-3.2l0,0
		l2.7-13.2C433.4,349.9,436.5,348.6,440,351.6z"/>
	<path id="path155" class="st7" d="M442.6,342.8l-5.7,11.9l0,0l5.7,11l0,0l-22.3,47.8L414,396l-15.9,2.9l22.3-47.8l0,0l10.7,0l0,0
		l5.5-12C436.6,339.2,440.6,339.2,442.6,342.8z"/>
	<path id="path157" class="st7" d="M443.6,346.3l-15.1,21.6l0,0l3.5,12.2l0,0l-30.8,40.6l-2.8-18.8l-16-1.4l30.8-40.6l0,0l10.4,2.9
		l0,0l16-22.9C439.5,340,443.8,342.4,443.6,346.3z"/>
	<path id="path159" class="st3" d="M207.2,293.6"/>
	<path id="path161" class="st6" d="M54.9,73.2c0,0,20.2,13.2,83.3,26.4"/>
	<path id="path163" class="st6" d="M63.9,91.4c0,0,54.8,20.1,80.3,22.6"/>
	<path id="path165" class="st6" d="M85.5,113.9c0,0,32.1,11.3,69.8,18.5"/>
	<path id="path167" class="st6" d="M112.9,137.6c0,0,36.3,9.8,53.6,11.4"/>
	<path id="path169" class="st3" d="M137.2,156.9c0,0,30.7,7.2,38.5,8.1"/>
	<path id="path171" class="st3" d="M156.8,174.6c0,0,22.4,3.8,31.3,3.6"/>
	<path id="path173" class="st3" d="M184.6,190c0,0,9.1-0.5,13.4-1.3"/>
	<path id="path175" class="st3" d="M193,206.3c0,0,7.7-2.3,12.2-5.6"/>
	<path id="path177" class="st3" d="M204.4,223.3c0,0,5.9-2.6,8.8-9.6"/>
	<path id="path179" class="st3" d="M218.8,229.6c0,0,4.6-4.6,4.9-9.8"/>
	<path id="path181" class="st3" d="M236,233.6c0,0-1.7-1.7-0.5-8.9"/>
	<path id="path183" class="st3" d="M233.8,214c0,0-0.9-2.1-0.6-5.4"/>
	<path id="path185" class="st3" d="M201.4,110.2c0,0,10.4,4.7,13.8,11.1c3.5,6.4,1.2,12.7,0,16.3c-0.6,1.8-7.9,17.6,0.7,29.1"/>
	<path id="path187" class="st3" d="M201.6,179.1c0,0,0-0.1,3.7-1.3"/>
	<path id="path189" class="st3" d="M179.7,162.3c0,0,6.2,1.4,12.2,1.5"/>
	<path id="path191" class="st3" d="M171.2,145.2c0,0,7.3,0.8,14.1,0.7"/>
	<path id="path193" class="st1" d="M198.1,349.2c0,0-0.2-7.1,7.8-7.6l23.5,36.8c0,0-0.9,2.4-11.5,2.1c0,0-1.1,0-1.7,1.4
		C215.3,384.1,198.1,349.2,198.1,349.2z"/>
	<path id="path195" class="st3" d="M160.3,127.3c0,0,10.5,2.3,16.1,2.5"/>
	<path id="path197" class="st3" d="M151.7,107.3c0,0,12.9,4.1,22.5,5.6"/>
	<path id="path199" class="st3" d="M195.5,121.4c0,0-9.3,9.7,1.9,18.7c0,0-4.6,8.2,4.6,16.7"/>
	<path id="path201" class="st3" d="M199.5,160.9c0,0-1.4,15.6,15.6,15.6c0,0-3.3,13.9,13.1,13.5c0,0,1.9,11.1,13.7,8.9"/>
	<path id="path203" class="st6" d="M215.9,321.1c0,0-2.7,0.7-8.5,0"/>
	<path id="path205" class="st3" d="M191,329.3c0,0-8.2-1.4-7.8,18.6"/>
	<path id="path207" class="st3" d="M195.9,333.8c0,0-7.4-1.1-6.9,18.4"/>
	<path id="path209" class="st6" d="M267.4,287c0,0-3.6,0.8-6,4c-2.5,3.2-7.2,2.6-7.2,2.6s2.6-2.3,3.5-8.2c0.9-5.8,3.8-7.6,3.8-7.6"
		/>
	<path id="path211" class="st6" d="M252.9,272.3c0,0-3.6,0.8-6,4c-2.5,3.2-7.2,2.6-7.2,2.6s2.6-2.3,3.5-8.2c0.9-5.8,3.8-7.6,3.8-7.6
		"/>
	<path id="path213" class="st6" d="M250.5,295c0,0-3.1,0.7-5.3,3.5c-2.2,2.8-6.3,2.2-6.3,2.2s2.2-2,3-7.1c0.8-5.1,3.3-6.6,3.3-6.6"
		/>
	<path id="path215" class="st11" d="M394.5,134.6c0,0-36.4,21.4-74.3-1.8c-37.9,23.2-74.3,1.8-74.3,1.8v62.1h148.6V134.6
		L394.5,134.6z"/>
	<path id="path217" class="st7" d="M60.8,295.7c3.6-1.7,6.2-3.3,6.2-7.6c0-1-0.5-3.3-1.5-6.8l-24.2-83.1c-1.4-4.9-2.5-7.9-3-9
		c-1.1-2.3-3.2-3.3-6.1-4.6h3h24.8h3c-3.3,1.8-6.4,3.2-6.4,7.2c0,1.5,0.4,3.7,1.2,6.4l18.5,65.2l18.5-65.2c0.8-2.8,1.2-4.9,1.2-6.4
		c0-4.1-3.2-5.6-6.3-7.2h2.9h23.9h3c-2.7,1.2-4.9,2.2-6.1,4.6c-0.5,1.1-1.6,4-3,9l-24.2,83.1c-1,3.5-1.4,5.8-1.5,6.9
		c0,0-1.1,5.3,6.2,7.5L60.8,295.7L60.8,295.7z"/>
	<path id="path219" class="st7" d="M576.1,287.1V193c0-1.6-0.2-2.9-0.7-3.7c-0.5-0.9-2.6-3.4-5.5-4.7h3h21.8h3c-3,1.1-5,3.8-5.5,4.7
		c-0.5,0.9-0.7,2.2-0.7,3.8v94.1c0,1.7,0.2,3,0.7,3.9c0.5,0.9,2.5,3.1,5.5,4.7h-3h-21.8h-3c3-1.5,5-3.9,5.5-4.7
		C575.9,290.1,576.1,288.8,576.1,287.1z"/>
</g>
</svg>
